<svg version="1.0" id="Layer_1" xmlns="http://www.w3.org/2000/svg" xmlns:xlink="http://www.w3.org/1999/xlink" viewBox="0 0 438.549 438.549" enable-background="new 0 0 438.549 438.549" xml:space="preserve">
<path fill="#44A833" d="M218.814,0.245C98.018,0.245,0.217,98.047,0.217,218.839c0,120.798,97.802,218.696,218.598,218.696
	c60.373,0,116.588-24.666,157.538-64.646c2.968-2.93,4.559-7.006,4.526-11.229c-0.033-4.229-1.676-8.279-4.672-11.242
	l-14.054-13.97c-2.973-2.957-6.938-4.583-11.148-4.583c-4.191,0-8.139,1.599-11.095,4.526
	c-32.94,32.638-78.2,52.315-128.099,52.315c-99.584,0-180.655-81.085-180.655-180.729c0-99.644,81.071-180.729,180.655-180.729
	c51.635,0,98.173,21.348,131.545,55.567l-25.804,25.664c-6.228-4.14-13.32-7.376-21.031-9.263
	c-1.332-0.322-2.666-0.571-4.001-0.812c-3.361-0.574-6.742-1.002-10.139-1.002c-32.64,0-59.132,26.447-59.132,59.056
	c0,12.945,4.301,24.869,11.527,34.543c4.643,6.22,10.488,11.485,17.297,15.547c9.196,5.502,19.932,8.738,31.535,8.738
	c32.675,0,59.132-26.447,59.132-59.056c0-3.614-0.393-7.158-0.986-10.609c-0.221-1.295-0.472-2.578-0.774-3.847
	c-2.015-8.394-5.413-16.265-9.984-23.438l23.416-23.291c17.022,26.46,26.994,57.989,26.994,91.48
	c0,90.669-73.616,164.32-164.318,164.32c-90.709,0-164.311-73.651-164.311-164.32c0-90.676,73.602-164.328,164.311-164.328
	c2.98,0,5.95,0.185,8.916,0.453l-23.004,22.902c-51.824,4.194-92.703,48.097-92.703,101.047c0,55.892,45.387,101.264,101.215,101.264
	c55.827,0,101.211-45.372,101.211-101.264c0-15.231-3.488-29.661-9.723-42.587l59.047-58.702
	c2.954-2.952,4.588-6.931,4.588-11.138c0-4.211-1.634-8.189-4.589-11.142C334.942,25.19,279.254,0.245,218.814,0.245z
	 M257.128,161.179c0,9.131-3.554,17.437-9.359,23.74c-0.605,0.645-1.188,1.295-1.826,1.879c-5.613,5.273-13.137,8.535-21.502,8.535
	c-17.107,0-30.994-13.848-30.994-30.944c0-8.375,3.28-15.899,8.585-21.504c0.528-0.563,1.078-1.101,1.653-1.611
	c5.617-5.23,13.144-8.482,21.512-8.482c17.091,0,30.929,13.872,30.929,30.887c0,0.065-0.008,0.122-0.008,0.179
	c0,0.016,0.008,0.023,0.008,0.031z"/>
</svg>
